# xmcd CD database file
#
# Track frame offsets:
#	150
#	93643
#	116714
#	141200
#	156038
#	170465
#	184584
#	199686
#	214652
#	229495
#	244983
#	256307
#	270558
#	278658
#
# Disc length: 4023 seconds
#
# Revision: 0
# Processed by: cddbd v1.5PL3 Copyright (c) Steve Scherf et al.
# Submitted via: CDex 1.50beta9
#
DISCID=cc0fb50e
DTITLE=I've - PILE☆DRIVER 完全制覇CD-ROM
DYEAR=1999
DGENRE=Game
TTITLE0=data
TTITLE1=季節の雫
TTITLE2=Take me high
TTITLE3=KISETSU NO SHIZUKU
TTITLE4=LET'S CHEER UP!!
TTITLE5=JUMP!
TTITLE6=AT THAT TIME...
TTITLE7=A PURE
TTITLE8=GROW UP YOUR DREAM
TTITLE9=Deadly Bless
TTITLE10=爆誕！ゼンラマンF
TTITLE11=ピンチ！ゼンラマンF
TTITLE12=月光の余韻
TTITLE13=季節の雫 〜Another Expression〜
EXTD=YEAR: 1999
EXTT0=
EXTT1=
EXTT2=
EXTT3=
EXTT4=
EXTT5=
EXTT6=
EXTT7=
EXTT8=
EXTT9=
EXTT10=
EXTT11=
EXTT12=
EXTT13=
PLAYORDER=
